<svg width="21" height="27" viewBox="0 0 21 27" fill="none" xmlns="http://www.w3.org/2000/svg">
<path d="M9.16796 0.288721C9.74804 -0.0962402 10.5074 -0.0962402 11.0875 0.288721L12.0262 0.905713C12.3426 1.11138 12.7117 1.21157 13.0861 1.19048L14.2094 1.12192C14.9055 1.07974 15.5594 1.45942 15.8705 2.08169L16.3768 3.08892C16.5455 3.42642 16.8197 3.69536 17.1519 3.86411L18.1697 4.37563C18.792 4.68677 19.1717 5.34067 19.1295 6.03677L19.0609 7.16001C19.0398 7.53442 19.14 7.90884 19.3457 8.21997L19.968 9.15864C20.3529 9.73872 20.3529 10.4981 19.968 11.0782L19.3457 12.0221C19.14 12.3385 19.0398 12.7077 19.0609 13.0821L19.1295 14.2053C19.1717 14.9014 18.792 15.5553 18.1697 15.8665L17.1625 16.3727C16.825 16.5415 16.556 16.8157 16.3873 17.1479L15.8758 18.1657C15.5646 18.7879 14.9107 19.1676 14.2146 19.1254L13.0914 19.0569C12.717 19.0358 12.3426 19.136 12.0314 19.3417L11.0928 19.9639C10.5127 20.3489 9.75331 20.3489 9.17323 19.9639L8.22929 19.3417C7.91288 19.136 7.54374 19.0358 7.16933 19.0569L6.04609 19.1254C5.34999 19.1676 4.69609 18.7879 4.38495 18.1657L3.8787 17.1584C3.70995 16.8209 3.43574 16.552 3.10351 16.3833L2.08574 15.8717C1.46347 15.5606 1.08378 14.9067 1.12597 14.2106L1.19452 13.0874C1.21562 12.7129 1.11542 12.3385 0.909759 12.0274L0.292767 11.0834C-0.0921943 10.5034 -0.0921943 9.74399 0.292767 9.16392L0.909759 8.22524C1.11542 7.90884 1.21562 7.5397 1.19452 7.16528L1.12597 6.04204C1.08378 5.34595 1.46347 4.69204 2.08574 4.38091L3.09296 3.87466C3.43046 3.70063 3.70468 3.42642 3.87343 3.08892L4.37968 2.08169C4.69081 1.45942 5.34472 1.07974 6.04081 1.12192L7.16406 1.19048C7.53847 1.21157 7.91288 1.11138 8.22402 0.905713L9.16796 0.288721ZM14.3465 10.1237C14.3465 9.0048 13.902 7.93174 13.1108 7.14058C12.3197 6.34941 11.2466 5.90493 10.1277 5.90493C9.00885 5.90493 7.93579 6.34941 7.14462 7.14058C6.35345 7.93174 5.90898 9.0048 5.90898 10.1237C5.90898 11.2426 6.35345 12.3156 7.14462 13.1068C7.93579 13.898 9.00885 14.3424 10.1277 14.3424C11.2466 14.3424 12.3197 13.898 13.1108 13.1068C13.902 12.3156 14.3465 11.2426 14.3465 10.1237ZM0.0712823 23.2967L2.34413 17.8915C2.35468 17.8967 2.35995 17.902 2.36523 17.9125L2.87148 18.9198C3.48847 20.1432 4.76992 20.8868 6.14101 20.8077L7.26425 20.7391C7.2748 20.7391 7.29062 20.7391 7.30117 20.7497L8.23984 21.3719C8.50878 21.5459 8.79355 21.6831 9.08886 21.778L7.10605 26.4872C6.98476 26.7772 6.71581 26.9723 6.40468 26.9987C6.09355 27.025 5.79296 26.8827 5.62421 26.619L3.92617 24.0192L0.967767 24.4569C0.667181 24.4991 0.366595 24.3778 0.176751 24.1405C-0.0130927 23.9032 -0.0500067 23.5762 0.0660089 23.2967H0.0712823ZM13.1494 26.4819L11.1666 21.778C11.4619 21.6831 11.7467 21.5512 12.0156 21.3719L12.9543 20.7497C12.9648 20.7444 12.9754 20.7391 12.9912 20.7391L14.1144 20.8077C15.4855 20.8868 16.767 20.1432 17.384 18.9198L17.8902 17.9125C17.8955 17.902 17.9008 17.8967 17.9113 17.8915L20.1894 23.2967C20.3055 23.5762 20.2633 23.8979 20.0787 24.1405C19.8941 24.3831 19.5883 24.5043 19.2877 24.4569L16.3293 24.0192L14.6312 26.6137C14.4625 26.8774 14.1619 27.0198 13.8508 26.9934C13.5396 26.967 13.2707 26.7667 13.1494 26.4819Z" fill="#1F5F41"/>
</svg>
